<?xml version="1.0" encoding="UTF-8"?>
<svg xmlns="http://www.w3.org/2000/svg" width="600" height="400" viewBox="0 0 600 400">
  <rect width="600" height="400" fill="#16213e"/>
  
  <!-- Abstract team visualization -->
  <g fill="none" stroke="#6E57E0" stroke-width="2">
    <circle cx="200" cy="150" r="40"/>
    <circle cx="300" cy="150" r="40"/>
    <circle cx="400" cy="150" r="40"/>
    
    <circle cx="150" cy="250" r="40"/>
    <circle cx="250" cy="250" r="40"/>
    <circle cx="350" cy="250" r="40"/>
    <circle cx="450" cy="250" r="40"/>
  </g>
  
  <!-- Connect the dots -->
  <g stroke="#e94560" stroke-width="1.5" opacity="0.6">
    <line x1="200" y1="150" x2="300" y2="150"/>
    <line x1="300" y1="150" x2="400" y2="150"/>
    
    <line x1="150" y1="250" x2="250" y2="250"/>
    <line x1="250" y1="250" x2="350" y2="250"/>
    <line x1="350" y1="250" x2="450" y2="250"/>
    
    <line x1="200" y1="150" x2="150" y2="250"/>
    <line x1="200" y1="150" x2="250" y2="250"/>
    <line x1="300" y1="150" x2="250" y2="250"/>
    <line x1="300" y1="150" x2="350" y2="250"/>
    <line x1="400" y1="150" x2="350" y2="250"/>
    <line x1="400" y1="150" x2="450" y2="250"/>
  </g>
  
  <!-- Person silhouettes -->
  <g fill="#4CC9F0">
    <circle cx="200" cy="150" r="15"/>
    <circle cx="300" cy="150" r="15"/>
    <circle cx="400" cy="150" r="15"/>
    
    <circle cx="150" cy="250" r="15"/>
    <circle cx="250" cy="250" r="15"/>
    <circle cx="350" cy="250" r="15"/>
    <circle cx="450" cy="250" r="15"/>
  </g>
  
  <!-- Logo in the center -->
  <g transform="translate(300, 320) scale(0.6)">
    <circle cx="0" cy="0" r="60" fill="#FFC107"/>
    <path d="M0 -50 L40 0 L0 0 Z" fill="#FFFFFF"/>
    <path d="M45 0 L0 45 L0 0 Z" fill="#FFFFFF"/>
    <path d="M0 -50 L-40 0 L0 0 Z" fill="#FFFFFF"/>
    <path d="M-45 0 L0 45 L0 0 Z" fill="#FFFFFF"/>
  </g>
  
  <!-- Text: Intelleo Team -->
  <text x="300" y="50" fill="#FFFFFF" font-family="Arial" font-size="24" text-anchor="middle" font-weight="bold">Intelleo Team</text>
</svg>