<?xml version="1.0" encoding="UTF-8"?>
<svg xmlns="http://www.w3.org/2000/svg" width="1200" height="400" viewBox="0 0 1200 400">
  <!-- Dark background with gradient -->
  <rect width="1200" height="400" fill="url(#bg-gradient)"/>
  
  <!-- Define gradients -->
  <defs>
    <linearGradient id="bg-gradient" x1="0%" y1="0%" x2="100%" y2="100%">
      <stop offset="0%" stop-color="#1a1a2e"/>
      <stop offset="100%" stop-color="#0f3460"/>
    </linearGradient>
  </defs>
  
  <!-- Connection lines -->
  <g stroke="#6E57E0" stroke-width="1" opacity="0.2">
    <line x1="0" y1="50" x2="1200" y2="50"/>
    <line x1="0" y1="150" x2="1200" y2="150"/>
    <line x1="0" y1="250" x2="1200" y2="250"/>
    <line x1="0" y1="350" x2="1200" y2="350"/>
    
    <line x1="100" y1="0" x2="100" y2="400"/>
    <line x1="300" y1="0" x2="300" y2="400"/>
    <line x1="500" y1="0" x2="500" y2="400"/>
    <line x1="700" y1="0" x2="700" y2="400"/>
    <line x1="900" y1="0" x2="900" y2="400"/>
    <line x1="1100" y1="0" x2="1100" y2="400"/>
  </g>
  
  <!-- Connection nodes -->
  <g fill="#e94560" opacity="0.3">
    <circle cx="100" cy="50" r="4"/>
    <circle cx="300" cy="50" r="4"/>
    <circle cx="500" cy="50" r="4"/>
    <circle cx="700" cy="50" r="4"/>
    <circle cx="900" cy="50" r="4"/>
    <circle cx="1100" cy="50" r="4"/>
    
    <circle cx="100" cy="150" r="4"/>
    <circle cx="300" cy="150" r="4"/>
    <circle cx="500" cy="150" r="4"/>
    <circle cx="700" cy="150" r="4"/>
    <circle cx="900" cy="150" r="4"/>
    <circle cx="1100" cy="150" r="4"/>
    
    <circle cx="100" cy="250" r="4"/>
    <circle cx="300" cy="250" r="4"/>
    <circle cx="500" cy="250" r="4"/>
    <circle cx="700" cy="250" r="4"/>
    <circle cx="900" cy="250" r="4"/>
    <circle cx="1100" cy="250" r="4"/>
    
    <circle cx="100" cy="350" r="4"/>
    <circle cx="300" cy="350" r="4"/>
    <circle cx="500" cy="350" r="4"/>
    <circle cx="700" cy="350" r="4"/>
    <circle cx="900" cy="350" r="4"/>
    <circle cx="1100" cy="350" r="4"/>
  </g>
  
  <!-- Diagonal connections -->
  <g stroke="#4CC9F0" stroke-width="0.8" opacity="0.2">
    <line x1="100" y1="50" x2="300" y2="150"/>
    <line x1="300" y1="50" x2="500" y2="150"/>
    <line x1="500" y1="50" x2="700" y2="150"/>
    <line x1="700" y1="50" x2="900" y2="150"/>
    <line x1="900" y1="50" x2="1100" y2="150"/>
    
    <line x1="100" y1="150" x2="300" y2="250"/>
    <line x1="300" y1="150" x2="500" y2="250"/>
    <line x1="500" y1="150" x2="700" y2="250"/>
    <line x1="700" y1="150" x2="900" y2="250"/>
    <line x1="900" y1="150" x2="1100" y2="250"/>
    
    <line x1="100" y1="250" x2="300" y2="350"/>
    <line x1="300" y1="250" x2="500" y2="350"/>
    <line x1="500" y1="250" x2="700" y2="350"/>
    <line x1="700" y1="250" x2="900" y2="350"/>
    <line x1="900" y1="250" x2="1100" y2="350"/>
  </g>
  
  <!-- Contact icon elements -->
  <g fill="none" stroke="#6E57E0" stroke-width="2" opacity="0.5">
    <!-- Mail icon -->
    <rect x="540" y="150" width="120" height="80" rx="5" ry="5"/>
    <path d="M540,150 L600,190 L660,150"/>
    <path d="M540,230 L580,190"/>
    <path d="M660,230 L620,190"/>
  </g>
  
  <!-- Circles in the background -->
  <circle cx="200" cy="100" r="50" fill="#e94560" opacity="0.05"/>
  <circle cx="1000" cy="300" r="70" fill="#6E57E0" opacity="0.05"/>
  <circle cx="600" cy="50" r="30" fill="#4CC9F0" opacity="0.05"/>
  <circle cx="400" cy="350" r="40" fill="#e94560" opacity="0.05"/>
</svg> 