<?xml version="1.0" encoding="UTF-8"?>
<svg xmlns="http://www.w3.org/2000/svg" width="60" height="60" viewBox="0 0 60 60">
  <!-- Database -->
  <ellipse cx="30" cy="15" rx="20" ry="8" fill="none" stroke="#6E57E0" stroke-width="2"/>
  <path d="M10,15 v25 q0,8 20,8 t20,-8 v-25" fill="none" stroke="#6E57E0" stroke-width="2"/>
  <path d="M10,25 q0,8 20,8 t20,-8" fill="none" stroke="#6E57E0" stroke-width="2"/>
  <path d="M10,35 q0,8 20,8 t20,-8" fill="none" stroke="#6E57E0" stroke-width="2"/>

  <!-- Data Flow Lines -->
  <path d="M20,15 C18,25 25,35 22,48" fill="none" stroke="#e94560" stroke-width="2" stroke-dasharray="2 2"/>
  <path d="M40,15 C42,25 35,35 38,48" fill="none" stroke="#4CC9F0" stroke-width="2" stroke-dasharray="2 2"/>
  
  <!-- Data Points -->
  <circle cx="20" cy="15" r="2" fill="#e94560"/>
  <circle cx="30" cy="15" r="2" fill="#4CC9F0"/>
  <circle cx="40" cy="15" r="2" fill="#e94560"/>
  
  <circle cx="20" cy="25" r="2" fill="#4CC9F0"/>
  <circle cx="30" cy="25" r="2" fill="#e94560"/>
  <circle cx="40" cy="25" r="2" fill="#4CC9F0"/>
  
  <circle cx="20" cy="35" r="2" fill="#e94560"/>
  <circle cx="30" cy="35" r="2" fill="#4CC9F0"/>
  <circle cx="40" cy="35" r="2" fill="#e94560"/>
  
  <circle cx="22" cy="48" r="3" fill="#e94560"/>
  <circle cx="38" cy="48" r="3" fill="#4CC9F0"/>
</svg> 