<?xml version="1.0" encoding="UTF-8"?>
<svg xmlns="http://www.w3.org/2000/svg" width="120" height="60" viewBox="0 0 120 60">
  <!-- Background -->
  <rect width="120" height="60" rx="5" ry="5" fill="#16213e"/>
  
  <!-- Graphene structure visualization -->
  <g fill="none" stroke="#e94560" stroke-width="1" opacity="0.8">
    <!-- Hexagonal pattern -->
    <path d="M20,30 L30,20 L45,20 L55,30 L45,40 L30,40 Z" />
    <path d="M55,30 L65,20 L80,20 L90,30 L80,40 L65,40 Z" />
    <path d="M45,20 L55,10 L70,10 L80,20" />
    <path d="M45,40 L55,50 L70,50 L80,40" />
    
    <!-- Dots at intersections -->
    <circle cx="30" cy="20" r="2" fill="#4CC9F0"/>
    <circle cx="45" cy="20" r="2" fill="#4CC9F0"/>
    <circle cx="55" cy="30" r="2" fill="#4CC9F0"/>
    <circle cx="45" cy="40" r="2" fill="#4CC9F0"/>
    <circle cx="30" cy="40" r="2" fill="#4CC9F0"/>
    <circle cx="20" cy="30" r="2" fill="#4CC9F0"/>
    
    <circle cx="65" cy="20" r="2" fill="#4CC9F0"/>
    <circle cx="80" cy="20" r="2" fill="#4CC9F0"/>
    <circle cx="90" cy="30" r="2" fill="#4CC9F0"/>
    <circle cx="80" cy="40" r="2" fill="#4CC9F0"/>
    <circle cx="65" cy="40" r="2" fill="#4CC9F0"/>
    
    <circle cx="55" cy="10" r="2" fill="#4CC9F0"/>
    <circle cx="70" cy="10" r="2" fill="#4CC9F0"/>
    
    <circle cx="55" cy="50" r="2" fill="#4CC9F0"/>
    <circle cx="70" cy="50" r="2" fill="#4CC9F0"/>
  </g>
  
  <!-- Company Name -->
  <text x="60" y="34" font-family="Arial" font-size="16" font-weight="bold" fill="#FFFFFF" text-anchor="middle">GRAPHENE</text>
</svg> 