<?xml version="1.0" encoding="UTF-8"?>
<svg xmlns="http://www.w3.org/2000/svg" width="60" height="60" viewBox="0 0 60 60">
  <!-- Magnifying Glass -->
  <circle cx="25" cy="25" r="15" fill="none" stroke="#6E57E0" stroke-width="3"/>
  <line x1="35" y1="35" x2="48" y2="48" stroke="#6E57E0" stroke-width="3" stroke-linecap="round"/>
  
  <!-- Data Visualization Elements -->
  <circle cx="20" cy="20" r="2" fill="#e94560"/>
  <circle cx="30" cy="20" r="2" fill="#4CC9F0"/>
  <circle cx="25" cy="30" r="2" fill="#e94560"/>
  <circle cx="20" cy="30" r="2" fill="#4CC9F0"/>
  
  <!-- Connection Lines -->
  <line x1="20" y1="20" x2="30" y2="20" stroke="#4CC9F0" stroke-width="1"/>
  <line x1="30" y1="20" x2="25" y2="30" stroke="#e94560" stroke-width="1"/>
  <line x1="25" y1="30" x2="20" y2="30" stroke="#4CC9F0" stroke-width="1"/>
  <line x1="20" y1="30" x2="20" y2="20" stroke="#e94560" stroke-width="1"/>
  
  <!-- Amplification Waves -->
  <path d="M42,15 C45,18 45,22 42,25" fill="none" stroke="#e94560" stroke-width="2" stroke-linecap="round"/>
  <path d="M46,10 C52,16 52,24 46,30" fill="none" stroke="#e94560" stroke-width="2" stroke-linecap="round"/>
  
  <!-- Insight Sparkles -->
  <path d="M15,10 L15,15 L10,15" fill="none" stroke="#4CC9F0" stroke-width="2" stroke-linecap="round"/>
  <path d="M35,42 L40,42 L40,47" fill="none" stroke="#4CC9F0" stroke-width="2" stroke-linecap="round"/>
</svg> 