<?xml version="1.0" encoding="UTF-8"?>
<svg xmlns="http://www.w3.org/2000/svg" width="120" height="120" viewBox="0 0 120 120">
  <circle cx="60" cy="60" r="60" fill="#FFC107"/>
  <!-- Aperture design -->
  <path d="M60 10 A50 50 0 0 1 110 60 L60 60 Z" fill="white" opacity="0.2"/>
  <path d="M110 60 A50 50 0 0 1 60 110 L60 60 Z" fill="white" opacity="0.2"/>
  <path d="M60 10 A50 50 0 0 0 10 60 L60 60 Z" fill="white" opacity="0.2"/>
  <path d="M10 60 A50 50 0 0 0 60 110 L60 60 Z" fill="white" opacity="0.2"/>
  
  <!-- Aperture blades -->
  <path d="M60 15 L100 60 L60 60 Z" fill="#FFFFFF"/>
  <path d="M105 60 L60 105 L60 60 Z" fill="#FFFFFF"/>
  <path d="M60 15 L20 60 L60 60 Z" fill="#FFFFFF"/>
  <path d="M15 60 L60 105 L60 60 Z" fill="#FFFFFF"/>
</svg> 