<?xml version="1.0" encoding="UTF-8"?>
<svg xmlns="http://www.w3.org/2000/svg" width="60" height="60" viewBox="0 0 60 60">
  <rect x="5" y="15" width="50" height="30" rx="5" ry="5" fill="none" stroke="#6E57E0" stroke-width="2"/>
  <!-- Text lines -->
  <line x1="12" y1="25" x2="48" y2="25" stroke="#e94560" stroke-width="2"/>
  <line x1="12" y1="30" x2="40" y2="30" stroke="#4CC9F0" stroke-width="2"/>
  <line x1="12" y1="35" x2="35" y2="35" stroke="#e94560" stroke-width="2"/>
  
  <!-- Speech bubble -->
  <path d="M15,10 Q15,5 20,5 L40,5 Q45,5 45,10 L45,15 L48,18 L45,20 L45,23 L42,19 L15,19 Z" fill="none" stroke="#6E57E0" stroke-width="1.5"/>
  
  <!-- Connection dots -->
  <circle cx="20" cy="12" r="2" fill="#e94560"/>
  <circle cx="30" cy="12" r="2" fill="#4CC9F0"/>
  <circle cx="40" cy="12" r="2" fill="#e94560"/>
  
  <!-- Bottom connections -->
  <path d="M25,45 C25,50 35,50 35,45" fill="none" stroke="#e94560" stroke-width="2"/>
  <path d="M20,45 C20,52 40,52 40,45" fill="none" stroke="#4CC9F0" stroke-width="2"/>
  <circle cx="20" cy="45" r="2" fill="#6E57E0"/>
  <circle cx="30" cy="45" r="2" fill="#e94560"/>
  <circle cx="40" cy="45" r="2" fill="#6E57E0"/>
</svg> 