<?xml version="1.0" encoding="UTF-8"?>
<svg xmlns="http://www.w3.org/2000/svg" width="60" height="60" viewBox="0 0 60 60">
  <!-- Workflow Lines -->
  <path d="M10,15 L25,15 L25,25 L35,25 L35,35 L50,35" fill="none" stroke="#6E57E0" stroke-width="2" stroke-linejoin="round"/>
  <path d="M10,45 L25,45 L25,35 L35,35 L35,15 L50,15" fill="none" stroke="#4CC9F0" stroke-width="2" stroke-linejoin="round"/>
  
  <!-- Process Nodes -->
  <circle cx="10" cy="15" r="5" fill="none" stroke="#e94560" stroke-width="2"/>
  <circle cx="25" cy="15" r="5" fill="none" stroke="#e94560" stroke-width="2"/>
  <circle cx="35" cy="15" r="5" fill="none" stroke="#e94560" stroke-width="2"/>
  <circle cx="50" cy="15" r="5" fill="none" stroke="#e94560" stroke-width="2"/>
  
  <circle cx="25" cy="25" r="5" fill="none" stroke="#6E57E0" stroke-width="2"/>
  <circle cx="35" cy="25" r="5" fill="none" stroke="#6E57E0" stroke-width="2"/>
  
  <circle cx="25" cy="35" r="5" fill="none" stroke="#4CC9F0" stroke-width="2"/>
  <circle cx="35" cy="35" r="5" fill="none" stroke="#4CC9F0" stroke-width="2"/>
  <circle cx="50" cy="35" r="5" fill="none" stroke="#4CC9F0" stroke-width="2"/>
  
  <circle cx="10" cy="45" r="5" fill="none" stroke="#e94560" stroke-width="2"/>
  <circle cx="25" cy="45" r="5" fill="none" stroke="#e94560" stroke-width="2"/>
  
  <!-- Gear Icons for Workflow -->
  <circle cx="10" cy="15" r="2" fill="#e94560"/>
  <circle cx="50" cy="15" r="2" fill="#e94560"/>
  <circle cx="25" cy="25" r="2" fill="#6E57E0"/>
  <circle cx="35" cy="35" r="2" fill="#4CC9F0"/>
  <circle cx="50" cy="35" r="2" fill="#4CC9F0"/>
  <circle cx="10" cy="45" r="2" fill="#e94560"/>
  
  <!-- Arrows -->
  <path d="M20,15 L15,13 L15,17 Z" fill="#6E57E0"/>
  <path d="M25,20 L23,15 L27,15 Z" fill="#6E57E0"/>
  <path d="M30,25 L35,23 L35,27 Z" fill="#6E57E0"/>
  <path d="M35,30 L33,35 L37,35 Z" fill="#4CC9F0"/>
  <path d="M45,35 L40,33 L40,37 Z" fill="#4CC9F0"/>
  <path d="M25,40 L23,45 L27,45 Z" fill="#e94560"/>
  <path d="M20,45 L15,43 L15,47 Z" fill="#e94560"/>
</svg> 